# xmcd
#
# Track frame offsets:
#	150
#	12165
#	24473
#	35618
#	47348
#	58133
#	69608
#	81586
#	93301
#	105781
#
# Disc length: 1570 seconds
#
# Revision: 1
# Processed by: cddbd v1.5.2PL0 Copyright (c) Steve Scherf et al.
# Submitted via: audiograbber 1.83.01
#
DISCID=7606200a
DTITLE=Flatt and Scruggs - Flatt and Scruggs Everest Recordings 
DYEAR=1972
DGENRE=Country
TTITLE0=Pike County Breakdown
TTITLE1=Doin' My Time
TTITLE2=I'll Be Going To Heaven Sometime
TTITLE3=Theme From Bonnie And Clyde
TTITLE4=Cora Is Gone
TTITLE5=Roll In My Sweet Baby's Arms
TTITLE6=No Mother Or Dad
TTITLE7=Why Don't You Tell Me So
TTITLE8=Bouquet In Heaven
TTITLE9=My Little Girl In Tennessee
EXTD=
EXTT0=
EXTT1=
EXTT2=
EXTT3=
EXTT4=
EXTT5=
EXTT6=
EXTT7=
EXTT8=
EXTT9=
PLAYORDER=
